<svg fill="white" id="Icons_-_Site" data-name="Icons - Site" xmlns="http://www.w3.org/2000/svg" viewBox="0 0 100 100"><path class="cls-1" d="M71.2,47.25a17.4,17.4,0,1,0-17.4-17.4A17.42,17.42,0,0,0,71.2,47.25Zm0-26.35a9,9,0,1,1-9,9A9,9,0,0,1,71.2,20.9Zm0,33.85a17.26,17.26,0,0,0-9.28,2.7L43.26,38.79a17.43,17.43,0,1,0-6,6l18.8,18.8A17.39,17.39,0,1,0,71.2,54.75ZM28.35,38.8a9,9,0,1,1,9-9A9,9,0,0,1,28.35,38.8ZM71.2,81.1a9,9,0,1,1,9-9A9,9,0,0,1,71.2,81.1ZM28.35,54.75a17.4,17.4,0,1,0,17.4,17.4A17.42,17.42,0,0,0,28.35,54.75Zm0,26.35a9,9,0,1,1,9-9A9,9,0,0,1,28.35,81.1Z"/></svg>
